<?xml version="1.0" encoding="utf-8"?>
<!-- Generator: Adobe Illustrator 16.0.0, SVG Export Plug-In . SVG Version: 6.00 Build 0)  -->
<!DOCTYPE svg PUBLIC "-//W3C//DTD SVG 1.1//EN" "http://www.w3.org/Graphics/SVG/1.1/DTD/svg11.dtd">
<svg version="1.1" xmlns="http://www.w3.org/2000/svg" xmlns:xlink="http://www.w3.org/1999/xlink" x="0px" y="0px"
	 width="236.621px" height="49.404px" viewBox="0 0 236.621 49.404" enable-background="new 0 0 236.621 49.404"
	 xml:space="preserve">
<g id="Layer_2">
</g>
<g id="Layer_1">
	<g>
		<path fill="#FFFFFF" d="M65.091,20.246c0,0.54-0.182,0.99-0.544,1.354c-0.363,0.363-0.814,0.544-1.353,0.544
			c-0.54,0-0.996-0.182-1.369-0.544c-0.373-0.363-0.56-0.813-0.56-1.354V2.142c0-0.539,0.187-0.996,0.56-1.369
			c0.374-0.373,0.83-0.56,1.369-0.56h12.691c0.478,0,0.887,0.171,1.229,0.513c0.342,0.342,0.513,0.751,0.513,1.229
			c0,0.478-0.171,0.887-0.513,1.229c-0.342,0.342-0.752,0.513-1.229,0.513H65.091V20.246z"/>
		<path fill="#FFFFFF" d="M90.6,22.33c-2.883,0-5.148-0.819-6.797-2.457c-1.648-1.638-2.473-4.013-2.473-7.125V1.955
			c0-0.539,0.187-0.99,0.56-1.354c0.373-0.362,0.829-0.544,1.369-0.544c0.518,0,0.964,0.182,1.338,0.544
			c0.373,0.363,0.56,0.814,0.56,1.354v10.639c0,1.991,0.482,3.521,1.446,4.588c0.965,1.068,2.318,1.603,4.06,1.603
			c1.721,0,3.064-0.514,4.029-1.541c0.964-1.027,1.447-2.524,1.447-4.495V1.955c0-0.539,0.187-0.99,0.56-1.354
			c0.374-0.362,0.829-0.544,1.369-0.544c0.518,0,0.964,0.182,1.337,0.544c0.373,0.363,0.56,0.814,0.56,1.354v10.608
			c0,3.172-0.829,5.595-2.488,7.264C95.815,21.496,93.524,22.33,90.6,22.33z"/>
		<path fill="#FFFFFF" d="M110.571,20.246V3.759h-5.288c-0.498,0-0.918-0.176-1.26-0.528s-0.513-0.768-0.513-1.244
			c0-0.477,0.171-0.892,0.513-1.245c0.342-0.352,0.763-0.528,1.26-0.528h14.465c0.476,0,0.886,0.176,1.229,0.528
			c0.342,0.354,0.513,0.768,0.513,1.245c0,0.477-0.171,0.892-0.513,1.244c-0.342,0.352-0.752,0.528-1.229,0.528h-5.32v16.487
			c0,0.519-0.187,0.965-0.56,1.338c-0.373,0.374-0.83,0.56-1.369,0.56c-0.54,0-0.995-0.187-1.369-0.56
			C110.758,21.211,110.571,20.765,110.571,20.246z"/>
		<path fill="#FFFFFF" d="M134.306,22.33c-2.883,0-5.148-0.819-6.797-2.457s-2.473-4.013-2.473-7.125V1.955
			c0-0.539,0.187-0.99,0.56-1.354c0.373-0.362,0.829-0.544,1.369-0.544c0.518,0,0.964,0.182,1.338,0.544
			c0.373,0.363,0.56,0.814,0.56,1.354v10.639c0,1.991,0.482,3.521,1.446,4.588c0.965,1.068,2.318,1.603,4.059,1.603
			c1.722,0,3.064-0.514,4.029-1.541c0.965-1.027,1.447-2.524,1.447-4.495V1.955c0-0.539,0.186-0.99,0.56-1.354
			c0.374-0.362,0.83-0.544,1.368-0.544c0.519,0,0.964,0.182,1.338,0.544c0.373,0.363,0.56,0.814,0.56,1.354v10.608
			c0,3.172-0.831,5.595-2.489,7.264C139.521,21.496,137.23,22.33,134.306,22.33z"/>
		<path fill="#FFFFFF" d="M148.926,20.246V2.142c0-0.539,0.187-0.996,0.56-1.369c0.374-0.373,0.83-0.56,1.369-0.56h7.777
			c2.695,0,4.791,0.726,6.284,2.177c1.202,1.245,1.804,2.811,1.804,4.698V7.15c0,1.68-0.441,3.064-1.322,4.153
			c-0.882,1.089-2.09,1.872-3.624,2.349l4.169,5.257c0.414,0.519,0.622,1.006,0.622,1.462c0,0.519-0.187,0.944-0.56,1.275
			c-0.374,0.332-0.799,0.498-1.276,0.498c-0.747,0-1.368-0.332-1.866-0.996l-5.288-6.75h-4.822v5.848c0,0.54-0.182,0.99-0.544,1.354
			c-0.363,0.363-0.814,0.544-1.353,0.544c-0.54,0-0.997-0.182-1.369-0.544C149.114,21.237,148.926,20.786,148.926,20.246z
			 M152.752,11.008h5.6c1.368,0,2.458-0.332,3.267-0.996c0.808-0.663,1.213-1.544,1.213-2.645V7.305
			c0-1.161-0.395-2.053-1.183-2.675s-1.897-0.933-3.329-0.933h-5.568V11.008L152.752,11.008z"/>
		<path fill="#FFFFFF" d="M173.346,21.988c-0.54,0-0.996-0.186-1.369-0.56c-0.374-0.372-0.56-0.829-0.56-1.368V2.142
			c0-0.539,0.187-0.996,0.56-1.369c0.373-0.373,0.83-0.56,1.369-0.56h12.661c0.477,0,0.882,0.166,1.213,0.498
			c0.331,0.332,0.498,0.736,0.498,1.213c0,0.478-0.167,0.882-0.498,1.213c-0.332,0.332-0.736,0.498-1.213,0.498h-10.763v5.662h9.363
			c0.477,0,0.882,0.171,1.214,0.513c0.331,0.342,0.497,0.752,0.497,1.229c0,0.456-0.167,0.851-0.497,1.182
			c-0.332,0.331-0.737,0.497-1.214,0.497h-9.363v5.848h10.918c0.456,0,0.855,0.167,1.198,0.497c0.342,0.333,0.513,0.737,0.513,1.214
			c0,0.477-0.166,0.882-0.497,1.213c-0.332,0.332-0.736,0.497-1.213,0.497L173.346,21.988L173.346,21.988z"/>
		<path fill="#FFFFFF" d="M61.266,47.479v-18.26c0-0.54,0.186-0.996,0.56-1.369c0.373-0.373,0.83-0.561,1.368-0.561h0.404
			c0.747,0,1.339,0.343,1.774,1.027l6.595,10.327l6.626-10.359c0.415-0.663,0.996-0.995,1.742-0.995h0.404
			c0.54,0,0.997,0.188,1.369,0.561c0.373,0.373,0.56,0.829,0.56,1.369v18.229c0,0.54-0.187,0.99-0.56,1.354
			c-0.373,0.362-0.83,0.544-1.369,0.544c-0.519,0-0.964-0.187-1.337-0.56s-0.56-0.819-0.56-1.338V34.383l-5.319,7.995
			c-0.436,0.663-0.975,0.995-1.618,0.995c-0.622,0-1.151-0.331-1.587-0.995l-5.288-7.933v13.034c0,0.519-0.183,0.959-0.545,1.322
			c-0.363,0.362-0.815,0.544-1.354,0.544s-0.985-0.182-1.338-0.544C61.44,48.438,61.266,47.998,61.266,47.479z"/>
		<path fill="#FFFFFF" d="M86.773,47.573c0-0.249,0.082-0.539,0.249-0.871l8.089-18.043c0.477-1.037,1.244-1.555,2.302-1.555h0.186
			c1.037,0,1.793,0.518,2.271,1.555l8.089,18.043c0.145,0.27,0.217,0.539,0.217,0.809c0,0.519-0.172,0.954-0.514,1.307
			c-0.342,0.354-0.773,0.528-1.29,0.528c-0.872,0-1.494-0.445-1.867-1.338l-1.774-4.074H92.153l-1.834,4.199
			c-0.332,0.81-0.923,1.213-1.774,1.213c-0.496,0-0.916-0.171-1.258-0.513C86.943,48.49,86.773,48.071,86.773,47.573z
			 M93.616,40.542h7.653l-3.826-8.804L93.616,40.542z"/>
		<path fill="#FFFFFF" d="M112.312,47.448V29.344c0-0.539,0.188-0.995,0.56-1.369c0.374-0.373,0.83-0.56,1.37-0.56h7.777
			c2.695,0,4.791,0.726,6.283,2.178c1.203,1.244,1.804,2.811,1.804,4.697v0.062c0,1.679-0.441,3.063-1.322,4.152
			s-2.089,1.872-3.625,2.349l4.168,5.257c0.415,0.519,0.622,1.006,0.622,1.463c0,0.519-0.186,0.943-0.56,1.275
			c-0.372,0.332-0.797,0.497-1.274,0.497c-0.746,0-1.368-0.331-1.866-0.995l-5.289-6.75h-4.822v5.848c0,0.54-0.181,0.99-0.544,1.354
			c-0.363,0.362-0.813,0.544-1.353,0.544c-0.54,0-0.997-0.182-1.37-0.544C112.5,48.438,112.312,47.988,112.312,47.448z
			 M116.14,38.21h5.6c1.369,0,2.458-0.332,3.267-0.996c0.808-0.663,1.212-1.544,1.212-2.645v-0.062c0-1.16-0.394-2.053-1.182-2.675
			s-1.896-0.934-3.329-0.934h-5.568V38.21z"/>
		<path fill="#FFFFFF" d="M134.804,47.448V29.156c0-0.538,0.186-0.989,0.56-1.353c0.373-0.362,0.829-0.544,1.368-0.544
			c0.538,0,0.991,0.182,1.354,0.544c0.362,0.363,0.544,0.814,0.544,1.353v9.209l10.328-10.391c0.436-0.477,0.964-0.715,1.586-0.715
			c0.519,0,0.944,0.176,1.276,0.528s0.498,0.768,0.498,1.244c0,0.54-0.229,1.017-0.685,1.432l-6.782,6.532l7.341,9.114
			c0.351,0.457,0.529,0.914,0.529,1.369c0,0.519-0.186,0.959-0.56,1.322c-0.374,0.362-0.831,0.544-1.369,0.544
			c-0.622,0-1.162-0.3-1.618-0.901l-7-8.929l-3.545,3.422v4.512c0,0.54-0.184,0.99-0.545,1.354
			c-0.363,0.362-0.815,0.544-1.354,0.544c-0.539,0-0.996-0.182-1.367-0.544C134.99,48.438,134.804,47.988,134.804,47.448z"/>
		<path fill="#FFFFFF" d="M158.913,49.189c-0.54,0-0.996-0.186-1.368-0.56c-0.373-0.373-0.56-0.829-0.56-1.368V29.344
			c0-0.539,0.188-0.995,0.56-1.369c0.374-0.373,0.829-0.56,1.368-0.56h12.662c0.477,0,0.882,0.166,1.214,0.497
			c0.331,0.333,0.497,0.736,0.497,1.214s-0.166,0.882-0.497,1.213c-0.332,0.332-0.737,0.498-1.214,0.498h-10.764v5.661h9.363
			c0.477,0,0.882,0.172,1.214,0.514s0.498,0.752,0.498,1.229c0,0.457-0.167,0.851-0.498,1.183c-0.332,0.331-0.737,0.497-1.214,0.497
			h-9.363v5.848h10.918c0.456,0,0.857,0.167,1.198,0.498c0.342,0.332,0.512,0.736,0.512,1.214c0,0.477-0.165,0.881-0.497,1.213
			c-0.333,0.331-0.737,0.496-1.214,0.496L158.913,49.189L158.913,49.189z"/>
		<path fill="#FFFFFF" d="M183.177,47.448V30.961h-5.287c-0.498,0-0.918-0.176-1.26-0.528c-0.342-0.354-0.514-0.768-0.514-1.244
			s0.172-0.892,0.514-1.245c0.342-0.352,0.762-0.528,1.26-0.528h14.464c0.477,0,0.886,0.177,1.229,0.528
			c0.342,0.354,0.513,0.769,0.513,1.245s-0.17,0.892-0.513,1.244c-0.343,0.352-0.752,0.528-1.229,0.528h-5.319v16.487
			c0,0.519-0.187,0.965-0.56,1.338c-0.374,0.374-0.83,0.56-1.369,0.56c-0.54,0-0.996-0.186-1.37-0.56
			C183.364,48.413,183.177,47.967,183.177,47.448z"/>
		<path fill="#FFFFFF" d="M199.912,49.189c-0.539,0-0.996-0.186-1.367-0.56c-0.374-0.373-0.56-0.829-0.56-1.368V29.344
			c0-0.539,0.186-0.995,0.56-1.369c0.372-0.373,0.829-0.56,1.367-0.56h12.663c0.477,0,0.881,0.166,1.212,0.497
			c0.332,0.333,0.498,0.736,0.498,1.214s-0.167,0.882-0.498,1.213c-0.332,0.332-0.736,0.498-1.212,0.498h-10.764v5.661h9.363
			c0.477,0,0.881,0.172,1.214,0.514c0.33,0.342,0.497,0.752,0.497,1.229c0,0.457-0.167,0.851-0.497,1.183
			c-0.333,0.331-0.737,0.497-1.214,0.497h-9.363v5.848h10.918c0.456,0,0.856,0.167,1.198,0.498c0.342,0.332,0.514,0.736,0.514,1.214
			c0,0.477-0.167,0.881-0.498,1.213c-0.332,0.331-0.736,0.496-1.212,0.496L199.912,49.189L199.912,49.189z"/>
		<path fill="#FFFFFF" d="M218.827,41.606V29.344c0-0.539,0.186-0.995,0.56-1.369c0.372-0.373,0.829-0.56,1.368-0.56h7.777
			c2.696,0,4.791,0.726,6.285,2.178c1.202,1.244,1.804,2.811,1.804,4.697v0.062c0,1.679-0.441,3.063-1.322,4.152
			c-0.882,1.089-2.089,1.872-3.624,2.349l4.168,5.257c0.415,0.519,0.622,1.006,0.622,1.463c0,0.519-0.187,0.943-0.56,1.275
			c-0.374,0.332-0.799,0.497-1.276,0.497c-0.747,0-1.369-0.331-1.866-0.995l-5.289-6.75h-4.821 M222.653,38.21h5.599
			c1.368,0,2.458-0.332,3.266-0.996c0.809-0.663,1.214-1.544,1.214-2.645v-0.062c0-1.16-0.395-2.053-1.182-2.675
			c-0.789-0.622-1.898-0.934-3.328-0.934h-5.569V38.21z"/>
	</g>
	<path fill="#F8C82D" d="M42.726,41.407H1.835C0.822,41.407,0,40.584,0,39.571c0-1.015,0.822-1.837,1.835-1.837h40.89
		c1.013,0,1.835,0.822,1.835,1.837C44.561,40.584,43.739,41.407,42.726,41.407z"/>
	<path fill="#F8C82D" d="M37.15,26.537H7.411c-1.014,0-1.835-0.821-1.835-1.835c0-1.014,0.822-1.835,1.835-1.835h29.738
		c1.014,0,1.836,0.822,1.836,1.835S38.164,26.537,37.15,26.537z"/>
	<path fill="#F8C82D" d="M18.563,33.972H5.553c-1.014,0-1.836-0.822-1.836-1.836c0-1.015,0.822-1.836,1.836-1.836h13.011
		c1.015,0,1.836,0.821,1.836,1.836C20.399,33.15,19.578,33.972,18.563,33.972z"/>
	<path fill="#F8C82D" d="M39.008,33.972H25.998c-1.015,0-1.836-0.822-1.836-1.836c0-1.015,0.821-1.836,1.836-1.836h13.011
		c1.014,0,1.835,0.821,1.835,1.836C40.844,33.15,40.022,33.972,39.008,33.972z"/>
	<path fill="#F8C82D" d="M33.432,19.103h-7.434c-1.015,0-1.836-0.822-1.836-1.835c0-1.015,0.821-1.836,1.836-1.836h7.434
		c1.015,0,1.836,0.821,1.836,1.836C35.268,18.281,34.446,19.103,33.432,19.103z"/>
	<path fill="#F8C82D" d="M18.563,19.103h-7.435c-1.014,0-1.835-0.822-1.835-1.835c0-1.015,0.822-1.836,1.835-1.836h7.435
		c1.014,0,1.835,0.821,1.835,1.836C20.399,18.281,19.577,19.103,18.563,19.103z"/>
	<path fill="#F8C82D" d="M27.856,11.669H16.705c-1.015,0-1.836-0.823-1.836-1.837c0-1.013,0.822-1.835,1.836-1.835h11.151
		c1.015,0,1.836,0.822,1.836,1.835C29.692,10.846,28.87,11.669,27.856,11.669z"/>
	<path fill="#FFFFFF" d="M68.595,13.148c-0.498,0-0.917-0.176-1.26-0.528c-0.342-0.353-0.513-0.768-0.513-1.245
		c0-0.477,0.171-0.892,0.513-1.244s0.762-0.529,1.26-0.529h5.668c0.477,0,0.886,0.176,1.229,0.529s0.513,0.768,0.513,1.244
		c0,0.478-0.171,0.892-0.513,1.245c-0.342,0.353-0.752,0.528-1.229,0.528H68.595z"/>
	<path fill="#FFFFFF" d="M218.822,45.368c0-0.535,0.19-0.988,0.571-1.356c0.379-0.369,0.826-0.554,1.339-0.554
		s0.96,0.185,1.341,0.554c0.379,0.368,0.569,0.821,0.569,1.356v2.096c0,0.514-0.19,0.955-0.569,1.323
		c-0.38,0.369-0.827,0.554-1.341,0.554c-0.515,0-0.96-0.185-1.339-0.554c-0.38-0.368-0.571-0.81-0.571-1.323V45.368z"/>
</g>
</svg>
