<?xml version="1.0" encoding="utf-8"?>
<!-- Generator: Adobe Illustrator 17.0.0, SVG Export Plug-In . SVG Version: 6.00 Build 0)  -->
<!DOCTYPE svg PUBLIC "-//W3C//DTD SVG 1.1//EN" "http://www.w3.org/Graphics/SVG/1.1/DTD/svg11.dtd">
<svg version="1.1" id="Layer_1" xmlns="http://www.w3.org/2000/svg" xmlns:xlink="http://www.w3.org/1999/xlink" x="0px" y="0px"
	 width="430px" height="230px" viewBox="0 0 430 230" enable-background="new 0 0 430 230" xml:space="preserve">
<g id="Layer_2">
	<g>
		<path fill="#898989" d="M253.667,70.083c0,3.438-2.812,6.25-6.25,6.25h-62.5c-3.438,0-6.25-2.812-6.25-6.25v-47.5
			c0-3.438,2.812-6.25,6.25-6.25h62.5c3.438,0,6.25,2.812,6.25,6.25V70.083z M184.917,21.333c-0.664,0-1.25,0.586-1.25,1.25v47.5
			c0,0.664,0.586,1.25,1.25,1.25h62.5c0.664,0,1.25-0.586,1.25-1.25v-47.5c0-0.664-0.586-1.25-1.25-1.25H184.917z M196.167,41.333
			c-4.141,0-7.5-3.359-7.5-7.5s3.359-7.5,7.5-7.5s7.5,3.359,7.5,7.5S200.308,41.333,196.167,41.333z M243.667,66.333h-55v-7.5
			l12.5-12.5l6.25,6.25l20-20l16.25,16.25V66.333z"/>
	</g>
	<g>
		<path fill="#898989" d="M129.526,124.5h-2.53v-2.002c-0.836,1.364-2.245,2.112-4.115,2.112c-3.366,0-5.611-2.442-5.611-6.007
			c0-3.521,2.267-5.919,5.567-5.919c1.892,0,3.3,0.77,4.159,2.134v-6.645h2.53V124.5z M126.996,118.691
			c0-2.267-1.474-3.851-3.586-3.851s-3.587,1.606-3.609,3.851c0.022,2.222,1.475,3.807,3.609,3.807
			C125.521,122.498,126.996,120.913,126.996,118.691z"/>
		<path fill="#898989" d="M135.904,115.127c0.792-1.585,2.201-2.421,4.049-2.421v2.421c-2.354-0.133-3.851,1.254-4.049,3.256v6.117
			h-2.53v-11.706h2.53V115.127z"/>
		<path fill="#898989" d="M153.154,118.647c0,3.521-2.486,5.94-6.095,5.94c-3.631,0-6.117-2.42-6.117-5.94
			c0-3.543,2.486-5.941,6.117-5.941C150.667,112.706,153.154,115.104,153.154,118.647z M143.472,118.669
			c0,2.267,1.475,3.807,3.587,3.807c2.09,0,3.564-1.54,3.564-3.807c0-2.244-1.474-3.784-3.564-3.784
			C144.947,114.885,143.472,116.425,143.472,118.669z"/>
		<path fill="#898989" d="M168.114,118.691c0,3.498-2.2,5.896-5.544,5.896c-1.871,0-3.279-0.748-4.137-2.112v6.293h-2.53v-15.975
			h2.53v2.024c0.858-1.364,2.266-2.112,4.092-2.112C165.848,112.706,168.114,115.127,168.114,118.691z M165.562,118.604
			c0-2.179-1.474-3.785-3.564-3.785s-3.564,1.584-3.564,3.785c0,2.266,1.474,3.828,3.564,3.828S165.562,120.848,165.562,118.604z"/>
		<path fill="#898989" d="M179.156,109.45c0,0.88-0.638,1.518-1.474,1.518c-0.836,0-1.474-0.638-1.474-1.518
			c0-0.902,0.638-1.541,1.474-1.541C178.518,107.909,179.156,108.548,179.156,109.45z M176.428,124.5v-11.706h2.508V124.5H176.428z"
			/>
		<path fill="#898989" d="M189.299,123.752c-0.924,0.55-1.892,0.858-2.882,0.858c-1.76,0-3.278-1.013-3.278-3.411v-6.072h-1.65
			v-1.893h1.65v-3.213h2.508v3.213h3.455v1.893h-3.455v5.61c0,1.21,0.462,1.584,1.254,1.584c0.528,0,1.078-0.176,1.76-0.506
			L189.299,123.752z"/>
		<path fill="#898989" d="M197.416,124.5v-16.326h2.53V124.5H197.416z"/>
		<path fill="#898989" d="M206.524,109.45c0,0.88-0.638,1.518-1.474,1.518s-1.474-0.638-1.474-1.518
			c0-0.902,0.638-1.541,1.474-1.541S206.524,108.548,206.524,109.45z M203.795,124.5v-11.706h2.508V124.5H203.795z"/>
		<path fill="#898989" d="M212.684,121.222v3.278h-2.53v-16.326h2.53v9.857l5.17-5.237h2.905l-4.336,4.533l4.666,7.173h-2.993
			l-3.433-5.369L212.684,121.222z"/>
		<path fill="#898989" d="M232.881,119.615h-8.846c0.396,1.805,1.782,2.927,3.631,2.927c1.275,0,2.442-0.484,3.301-1.364l1.342,1.43
			c-1.145,1.255-2.816,1.98-4.841,1.98c-3.608,0-5.985-2.398-5.985-5.919c0-3.542,2.443-5.94,5.92-5.963
			C231.517,112.706,233.188,115.391,232.881,119.615z M230.68,117.767c-0.088-1.892-1.342-3.036-3.256-3.036
			c-1.848,0-3.146,1.166-3.433,3.036H230.68z"/>
		<path fill="#898989" d="M243.924,109.45c0,0.88-0.639,1.518-1.475,1.518s-1.475-0.638-1.475-1.518
			c0-0.902,0.639-1.541,1.475-1.541S243.924,108.548,243.924,109.45z M241.195,124.5v-11.706h2.508V124.5H241.195z"/>
		<path fill="#898989" d="M254.066,123.752c-0.925,0.55-1.893,0.858-2.883,0.858c-1.76,0-3.278-1.013-3.278-3.411v-6.072h-1.65
			v-1.893h1.65v-3.213h2.509v3.213h3.454v1.893h-3.454v5.61c0,1.21,0.461,1.584,1.254,1.584c0.527,0,1.078-0.176,1.76-0.506
			L254.066,123.752z"/>
		<path fill="#898989" d="M258.268,110.506c0,0.44-0.154,0.792-0.396,1.145l-1.254,1.892h-1.299l0.837-1.892
			c-0.396-0.265-0.595-0.683-0.595-1.145c0-0.836,0.572-1.408,1.365-1.408C257.629,109.098,258.268,109.604,258.268,110.506z"/>
		<path fill="#898989" d="M268.695,113.872l-0.924,1.871c-1.034-0.639-2.332-1.034-3.366-1.034c-0.99,0-1.716,0.33-1.716,1.166
			c0,2.156,6.227,0.99,6.204,5.236c0,2.398-2.134,3.477-4.488,3.477c-1.716,0-3.542-0.572-4.709-1.628l0.902-1.805
			c1.013,0.902,2.64,1.452,3.917,1.452c1.078,0,1.914-0.374,1.914-1.254c0-2.398-6.161-1.056-6.139-5.28
			c0-2.377,2.068-3.389,4.312-3.389C266.077,112.685,267.64,113.124,268.695,113.872z"/>
		<path fill="#898989" d="M288.452,117.217v7.283h-2.53v-6.579c0-1.76-1.057-2.838-2.816-2.838
			c-2.091,0.021-3.345,1.584-3.345,3.652v5.765h-2.53v-16.326h2.53v6.909c0.836-1.65,2.332-2.377,4.335-2.377
			C286.823,112.706,288.452,114.423,288.452,117.217z"/>
		<path fill="#898989" d="M302.949,118.647c0,3.521-2.486,5.94-6.095,5.94c-3.63,0-6.116-2.42-6.116-5.94
			c0-3.543,2.486-5.941,6.116-5.941C300.463,112.706,302.949,115.104,302.949,118.647z M293.269,118.669
			c0,2.267,1.474,3.807,3.586,3.807c2.091,0,3.564-1.54,3.564-3.807c0-2.244-1.474-3.784-3.564-3.784
			C294.742,114.885,293.269,116.425,293.269,118.669z"/>
		<path fill="#898989" d="M312.211,123.752c-0.924,0.55-1.893,0.858-2.883,0.858c-1.76,0-3.278-1.013-3.278-3.411v-6.072h-1.65
			v-1.893h1.65v-3.213h2.509v3.213h3.454v1.893h-3.454v5.61c0,1.21,0.462,1.584,1.254,1.584c0.528,0,1.078-0.176,1.761-0.506
			L312.211,123.752z"/>
	</g>
</g>
<g id="Layer_3">
	<rect x="82" y="169.667" fill="#4FE8C4" width="267.333" height="59.333"/>
	<g>
		<path fill="#FFFFFF" d="M120.459,205.897c0,0.503-0.408,0.911-0.911,0.911h-13.971c-0.503,0-0.911-0.408-0.911-0.911v-3.037
			c0-0.503,0.408-0.911,0.911-0.911h4.053c0.256,0.702,0.93,1.215,1.718,1.215h2.43c0.788,0,1.461-0.513,1.718-1.215h4.053
			c0.503,0,0.911,0.408,0.911,0.911v3.037H120.459z M116.815,197.09h-2.43v4.252c0,0.332-0.275,0.607-0.607,0.607h-2.43
			c-0.332,0-0.607-0.275-0.607-0.607v-4.252h-2.43c-0.247,0-0.465-0.151-0.56-0.38c-0.095-0.218-0.047-0.483,0.133-0.654
			l4.252-4.252c0.114-0.124,0.275-0.181,0.427-0.181s0.313,0.057,0.427,0.181l4.252,4.252c0.18,0.171,0.228,0.437,0.133,0.654
			C117.28,196.938,117.062,197.09,116.815,197.09z M116.208,204.379c-0.332,0-0.607,0.275-0.607,0.607s0.275,0.607,0.607,0.607
			s0.607-0.275,0.607-0.607S116.54,204.379,116.208,204.379z M118.637,204.379c-0.332,0-0.607,0.275-0.607,0.607
			s0.275,0.607,0.607,0.607s0.607-0.275,0.607-0.607S118.969,204.379,118.637,204.379z"/>
	</g>
	<g>
		<path fill="#FFFFFF" d="M147.271,200.421c0,3.019-1.897,4.865-5.015,4.865c-3.117,0-5.031-1.847-5.031-4.865v-6.763h1.946v6.763
			c0,1.946,1.204,3.117,3.101,3.117c1.88,0,3.052-1.154,3.052-3.117v-6.763h1.946V200.421z"/>
		<path fill="#FFFFFF" d="M159.185,200.85c0,2.622-1.649,4.421-4.157,4.421c-1.402,0-2.458-0.562-3.101-1.584v4.718h-1.897v-11.976
			h1.897v1.518c0.644-1.022,1.699-1.583,3.068-1.583C157.485,196.363,159.185,198.178,159.185,200.85z M157.271,200.783
			c0-1.633-1.105-2.837-2.672-2.837c-1.567,0-2.672,1.188-2.672,2.837c0,1.699,1.105,2.87,2.672,2.87
			C156.166,203.653,157.271,202.466,157.271,200.783z"/>
		<path fill="#FFFFFF" d="M161.25,205.204v-12.239h1.897v12.239H161.25z"/>
		<path fill="#FFFFFF" d="M174.365,200.816c0,2.64-1.864,4.454-4.569,4.454c-2.722,0-4.586-1.814-4.586-4.454
			c0-2.655,1.864-4.453,4.586-4.453C172.501,196.363,174.365,198.161,174.365,200.816z M167.107,200.833
			c0,1.699,1.105,2.854,2.689,2.854c1.567,0,2.672-1.154,2.672-2.854c0-1.683-1.105-2.837-2.672-2.837
			C168.212,197.996,167.107,199.15,167.107,200.833z"/>
		<path fill="#FFFFFF" d="M181.609,204.132c-0.627,0.775-1.633,1.154-2.903,1.154c-1.897,0-3.084-1.171-3.084-2.721
			c0-1.601,1.204-2.623,3.315-2.64h2.656v-0.264c0-1.105-0.709-1.766-2.095-1.766c-0.841,0-1.716,0.297-2.59,0.892l-0.775-1.32
			c1.221-0.726,2.111-1.104,3.777-1.104c2.26,0,3.53,1.154,3.546,3.084l0.017,5.757h-1.864V204.132z M181.593,202.119v-0.808h-2.375
			c-1.237,0-1.814,0.33-1.814,1.171c0,0.792,0.644,1.303,1.699,1.303C180.455,203.785,181.494,203.076,181.593,202.119z"/>
		<path fill="#FFFFFF" d="M194.378,205.204h-1.896v-1.501c-0.627,1.022-1.683,1.583-3.085,1.583c-2.523,0-4.206-1.83-4.206-4.503
			c0-2.639,1.699-4.437,4.173-4.437c1.419,0,2.475,0.577,3.118,1.6v-4.981h1.896V205.204z M192.482,200.85
			c0-1.699-1.105-2.887-2.688-2.887c-1.584,0-2.689,1.204-2.705,2.887c0.016,1.666,1.104,2.854,2.705,2.854
			C191.376,203.703,192.482,202.516,192.482,200.85z"/>
		<path fill="#FFFFFF" d="M203.769,195.72v1.039h2.293v1.419h-2.293v7.026h-1.881v-7.026h-1.154v-1.419h1.154v-0.857
			c0-2.046,1.501-3.019,3.019-3.019c0.71,0,1.419,0.197,1.979,0.61l-0.726,1.451c-0.363-0.264-0.809-0.412-1.204-0.412
			C204.313,194.532,203.769,194.895,203.769,195.72z"/>
		<path fill="#FFFFFF" d="M209.083,198.178c0.594-1.188,1.649-1.814,3.035-1.814v1.814c-1.765-0.1-2.887,0.939-3.035,2.44v4.586
			h-1.896v-8.775h1.896V198.178z"/>
		<path fill="#FFFFFF" d="M222.015,200.816c0,2.64-1.863,4.454-4.568,4.454c-2.721,0-4.585-1.814-4.585-4.454
			c0-2.655,1.864-4.453,4.585-4.453C220.151,196.363,222.015,198.161,222.015,200.816z M214.758,200.833
			c0,1.699,1.104,2.854,2.688,2.854c1.566,0,2.672-1.154,2.672-2.854c0-1.683-1.105-2.837-2.672-2.837
			C215.862,197.996,214.758,199.15,214.758,200.833z"/>
		<path fill="#FFFFFF" d="M238.661,199.744v5.46h-1.896v-4.932c0-1.336-0.792-2.145-2.078-2.145
			c-1.501,0.05-2.408,1.204-2.408,2.738v4.338h-1.897v-4.932c0-1.336-0.774-2.145-2.062-2.145c-1.518,0.05-2.441,1.204-2.441,2.738
			v4.338h-1.88v-8.775h1.88v1.699c0.61-1.237,1.732-1.765,3.184-1.765c1.567,0,2.64,0.774,3.052,2.111
			c0.561-1.469,1.731-2.111,3.332-2.111C237.457,196.363,238.661,197.649,238.661,199.744z"/>
		<path fill="#FFFFFF" d="M252.689,197.798l-1.039,1.221c-0.61-0.627-1.452-1.006-2.508-0.989c-1.518,0-2.605,1.138-2.605,2.804
			s1.088,2.804,2.605,2.804c1.105,0,1.996-0.362,2.59-1.056l1.056,1.056c-0.792,1.04-2.062,1.634-3.728,1.634
			c-2.606,0-4.421-1.799-4.421-4.438c0-2.655,1.814-4.47,4.421-4.47C250.644,196.363,251.881,196.874,252.689,197.798z"/>
		<path fill="#FFFFFF" d="M262.754,200.816c0,2.64-1.863,4.454-4.568,4.454c-2.722,0-4.586-1.814-4.586-4.454
			c0-2.655,1.864-4.453,4.586-4.453C260.891,196.363,262.754,198.161,262.754,200.816z M255.497,200.833
			c0,1.699,1.104,2.854,2.688,2.854c1.566,0,2.672-1.154,2.672-2.854c0-1.683-1.105-2.837-2.672-2.837
			C256.602,197.996,255.497,199.15,255.497,200.833z"/>
		<path fill="#FFFFFF" d="M279.4,199.744v5.46h-1.896v-4.932c0-1.336-0.792-2.145-2.078-2.145c-1.501,0.05-2.408,1.204-2.408,2.738
			v4.338h-1.897v-4.932c0-1.336-0.774-2.145-2.062-2.145c-1.518,0.05-2.441,1.204-2.441,2.738v4.338h-1.88v-8.775h1.88v1.699
			c0.61-1.237,1.732-1.765,3.184-1.765c1.567,0,2.64,0.774,3.052,2.111c0.561-1.469,1.731-2.111,3.332-2.111
			C278.196,196.363,279.4,197.649,279.4,199.744z"/>
		<path fill="#FFFFFF" d="M291.183,200.85c0,2.622-1.649,4.421-4.156,4.421c-1.402,0-2.458-0.562-3.101-1.584v4.718h-1.897v-11.976
			h1.897v1.518c0.643-1.022,1.698-1.583,3.067-1.583C289.484,196.363,291.183,198.178,291.183,200.85z M289.27,200.783
			c0-1.633-1.105-2.837-2.672-2.837c-1.567,0-2.672,1.188-2.672,2.837c0,1.699,1.104,2.87,2.672,2.87
			C288.164,203.653,289.27,202.466,289.27,200.783z"/>
		<path fill="#FFFFFF" d="M301.133,205.204h-1.897v-1.716c-0.594,1.221-1.698,1.766-3.134,1.782c-2.012,0-3.216-1.287-3.216-3.382
			v-5.46h1.896v4.932c0,1.32,0.775,2.128,2.045,2.128c1.518-0.032,2.408-1.204,2.408-2.737v-4.322h1.897V205.204z"/>
		<path fill="#FFFFFF" d="M308.905,204.644c-0.693,0.412-1.419,0.643-2.161,0.643c-1.319,0-2.458-0.759-2.458-2.557v-4.552h-1.236
			v-1.419h1.236v-2.408h1.881v2.408h2.59v1.419h-2.59v4.206c0,0.907,0.347,1.188,0.94,1.188c0.396,0,0.808-0.132,1.319-0.38
			L308.905,204.644z"/>
		<path fill="#FFFFFF" d="M318.277,201.542h-6.632c0.298,1.353,1.337,2.194,2.722,2.194c0.957,0,1.831-0.363,2.475-1.022
			l1.006,1.071c-0.857,0.94-2.111,1.485-3.629,1.485c-2.705,0-4.486-1.799-4.486-4.438c0-2.655,1.831-4.453,4.438-4.47
			C317.254,196.363,318.508,198.375,318.277,201.542z M316.627,200.156c-0.065-1.418-1.006-2.275-2.44-2.275
			c-1.386,0-2.359,0.874-2.573,2.275H316.627z"/>
		<path fill="#FFFFFF" d="M322.155,198.178c0.594-1.188,1.649-1.814,3.035-1.814v1.814c-1.765-0.1-2.887,0.939-3.035,2.44v4.586
			h-1.896v-8.775h1.896V198.178z"/>
	</g>
</g>
</svg>
