<?xml version="1.0" encoding="UTF-8"?>
<svg width="29px" height="23px" viewBox="0 0 29 23" version="1.1" xmlns="http://www.w3.org/2000/svg" xmlns:xlink="http://www.w3.org/1999/xlink">
    <!-- Generator: Sketch 41 (35326) - http://www.bohemiancoding.com/sketch -->
    <title>Group 19</title>
    <desc>Created with Sketch.</desc>
    <defs></defs>
    <g id="Symbols" stroke="none" stroke-width="1" fill="none" fill-rule="evenodd">
        <g id="Image---Default" transform="translate(-20.000000, -54.000000)" fill="#9EA6BF">
            <g id="Group-31">
                <g id="Group-20" transform="translate(0.000000, 34.000000)">
                    <g id="Group-19" transform="translate(20.405797, 20.405797)">
                        <path d="M1.12456178,21.3722769 C0.581978111,21.3722769 0.142568481,20.9310249 0.142568481,20.3856588 L0.142568481,1.30414529 C0.142568481,0.759053127 0.581978111,0.317527106 1.12456178,0.317527106 L22.7266425,0.317527106 C23.2692262,0.317527106 23.7086358,0.759190119 23.7086358,1.30414529 L23.7086358,11.8636449 L22.2373495,11.8636449 L21.3995545,11.8636449 L21.3995545,2.60296881 L2.42929763,2.60296881 L2.42929763,15.3469468 L3.51269315,15.3469468 L7.89029796,8.48541601 L10.8158339,13.0702726 L12.2687205,15.3470838 L13.528207,15.3470838 L11.4455089,12.0829695 L12.802854,9.95547985 L16.2430335,15.3468098 L17.6300905,15.3468098 L17.6300905,16.4941199 L17.6300905,18.7424367 L17.6300905,20.1635943 L19.0439973,20.1635943 L20.8230338,20.1635943 L20.8230338,21.3724139 L1.12456178,21.3724139 L1.12456178,21.3722769 Z" id="Path"></path>
                        <path d="M19.7305067,6.87822294 C19.7305067,8.00594314 18.8206125,8.9205034 17.698646,8.9205034 C16.5766795,8.9205034 15.6667853,8.00594314 15.6667853,6.87822294 C15.6667853,5.75050274 16.5766795,4.83594248 17.698646,4.83594248 C18.8206125,4.83594248 19.7305067,5.75091372 19.7305067,6.87822294 Z" id="Path"></path>
                        <polygon id="Path" points="24.4739227 18.7422997 24.4739227 21.9510692 22.2377584 21.9510692 22.2377584 21.3722769 22.2377584 18.7422997 19.0446787 18.7422997 19.0446787 16.4939829 22.2377584 16.4939829 22.2377584 13.2852135 23.7090447 13.2852135 24.474059 13.2852135 24.474059 16.4939829 27.6667298 16.4939829 27.6667298 18.7422997"></polygon>
                    </g>
                </g>
            </g>
        </g>
    </g>
</svg>