<?xml version="1.0" encoding="UTF-8"?>
<svg width="16px" height="16px" viewBox="0 0 16 16" version="1.1" xmlns="http://www.w3.org/2000/svg" xmlns:xlink="http://www.w3.org/1999/xlink">
    <!-- Generator: Sketch 41 (35326) - http://www.bohemiancoding.com/sketch -->
    <title>Group 9</title>
    <desc>Created with Sketch.</desc>
    <defs></defs>
    <g id="Page-1" stroke="none" stroke-width="1" fill="none" fill-rule="evenodd">
        <g id="Form-components" transform="translate(-805.000000, -1307.000000)">
            <g id="Group-27" transform="translate(536.000000, 1116.000000)">
                <g id="Group-24">
                    <g id="Group-6-Copy-5" transform="translate(6.000000, 134.000000)">
                        <g id="Group-9" transform="translate(263.000000, 57.000000)">
                            <circle id="Oval" fill="#34C87B" cx="8" cy="8" r="8"></circle>
                            <path d="M11.8828378,4.36734459 C11.7432906,4.24421471 11.5216568,4.24421471 11.3821096,4.36734459 L6.53900118,8.84927205 L4.49504524,8.09407548 C4.33908073,8.03661487 4.15849025,8.09407548 4.06819501,8.22541402 C3.96969111,8.36496121 3.97789977,8.54555169 4.09282098,8.67689023 L6.33378472,11.3036609 C6.40766264,11.3857475 6.50616654,11.4349994 6.6128791,11.4349994 L6.65392239,11.4349994 C6.75242629,11.4267908 6.84272153,11.3693302 6.9083908,11.2954522 L11.9238811,4.85986409 C12.0388023,4.71210824 12.022385,4.49047446 11.8828378,4.36734459 L11.8828378,4.36734459 Z" id="Shape" stroke="#FFFFFF" fill="#FFFFFF"></path>
                        </g>
                    </g>
                </g>
            </g>
        </g>
    </g>
</svg>