<svg width="16" height="16" viewBox="0 0 16 16" xmlns="http://www.w3.org/2000/svg"><title>Group 3</title><g fill="none" fill-rule="evenodd"><circle fill="#F54E4E" cx="8" cy="8" r="8"/><path d="M9.768 4.793L4.793 9.768c-.39.39-.39 1.023 0 1.414.39.39 1.024.39 1.414 0l4.975-4.975c.39-.39.39-1.024 0-1.414-.39-.39-1.024-.39-1.414 0z" fill="#FFF"/><path d="M4.818 6.232l4.975 4.975c.39.39 1.024.39 1.414 0 .39-.39.39-1.024 0-1.414L6.232 4.818c-.39-.39-1.023-.39-1.414 0-.39.39-.39 1.024 0 1.414z" fill="#FFF"/></g></svg>