<?xml version="1.0" encoding="utf-8"?>
<!-- Generator: Adobe Illustrator 16.0.0, SVG Export Plug-In . SVG Version: 6.00 Build 0)  -->
<!DOCTYPE svg PUBLIC "-//W3C//DTD SVG 1.1//EN" "http://www.w3.org/Graphics/SVG/1.1/DTD/svg11.dtd">
<svg version="1.1" id="Layer_1" xmlns="http://www.w3.org/2000/svg" xmlns:xlink="http://www.w3.org/1999/xlink" x="0px" y="0px"
	 width="283.46px" height="242.971px" viewBox="0 0 283.46 242.971" enable-background="new 0 0 283.46 242.971"
	 xml:space="preserve">
<g id="Layer_1_1_">
</g>
<g>
	<g>
		<path fill="#BFBEBE" d="M206.175,22.486v198l-65.647-58.447l-65.647,58.447v-198H206.175 M206.175,2.486H74.881
			c-11.046,0-20,8.954-20,20v198c0,7.879,4.625,15.023,11.814,18.248c2.625,1.178,5.414,1.752,8.182,1.752
			c4.814,0,9.567-1.736,13.303-5.062l52.348-46.606l52.349,46.606c3.735,3.326,8.489,5.062,13.303,5.062
			c2.769,0,5.557-0.574,8.182-1.752c7.188-3.225,11.814-10.369,11.814-18.248v-198C226.175,11.44,217.221,2.486,206.175,2.486
			L206.175,2.486z"/>
	</g>
</g>
</svg>
