<?xml version="1.0" encoding="UTF-8"?>
<svg width="20px" height="18px" viewBox="0 0 20 18" version="1.1" xmlns="http://www.w3.org/2000/svg" xmlns:xlink="http://www.w3.org/1999/xlink">
    <!-- Generator: sketchtool 40.3 (33839) - http://www.bohemiancoding.com/sketch -->
    <title>05388057-452C-4E40-AF80-9408B8C4CC61</title>
    <desc>Created with sketchtool.</desc>
    <defs></defs>
    <g id="Madeline---light" stroke="none" stroke-width="1" fill="none" fill-rule="evenodd">
        <g id="Theme-Madeline---Updated-Profile" transform="translate(-537.000000, -504.000000)" fill="#576B74">
            <g id="Group-8-Copy" transform="translate(537.000000, 504.000000)">
                <path d="M19.5131666,8.60124293 C19.5131666,8.19295255 19.2891265,7.82582703 18.9283221,7.64294343 L17.5076875,6.92374716 L18.9283221,6.20458863 C18.9283594,6.2045509 18.9284712,6.20451317 18.9284712,6.20451317 C19.289201,6.02170503 19.5132411,5.65454177 19.5132411,5.2462514 C19.5132411,4.83803649 19.2891638,4.47087324 18.9283967,4.28798964 L10.9081948,0.227875625 C10.3226796,-0.0682773303 9.6236537,-0.0682773303 9.03802669,0.227913356 L1.01797387,4.28817829 C0.657318559,4.47091097 0.433241233,4.83803649 0.433241233,5.24628913 C0.433241233,5.65457951 0.657281294,6.02170503 1.01808566,6.20458863 L2.43868299,6.92374716 L1.01789934,7.64301889 C0.657281294,7.82582703 0.433241233,8.19295255 0.433241233,8.60124293 C0.433241233,9.0095333 0.657281294,9.37665882 1.01808566,9.55950469 L2.43868299,10.278701 L1.01819746,10.9978218 C0.657579418,11.1802526 0.433390295,11.5472649 0.433241233,11.955593 C0.433092171,12.3641475 0.657132232,12.7314994 1.01808566,12.9144208 L9.03817576,16.9746102 C9.33093336,17.1227056 9.65197546,17.1966966 9.97316663,17.1966966 C10.2943578,17.1966966 10.615549,17.1226301 10.9083438,16.9745725 L18.9284339,12.914383 C19.2892383,12.7315749 19.5133156,12.3641852 19.5131666,11.9556307 C19.5130175,11.5473026 19.2888284,11.1802903 18.9283221,10.9979727 L17.5076875,10.2787764 L18.9284712,9.55950469 C19.2891265,9.37665882 19.5131666,9.0095333 19.5131666,8.60124293 L19.5131666,8.60124293 Z M1.41052842,5.41030709 C1.32336447,5.36612374 1.31039608,5.28858592 1.31039608,5.24632687 C1.31039608,5.20406781 1.323439,5.12653 1.41037936,5.08245984 L9.4302086,1.02242129 C9.60025098,0.936393932 9.7867647,0.893455715 9.97327842,0.893455715 C10.1597176,0.893455715 10.3461941,0.936431663 10.5161247,1.02238356 L18.5359166,5.08238438 C18.6230061,5.12653 18.636049,5.20406781 18.636049,5.24632687 C18.636049,5.28858592 18.6230806,5.36612374 18.5359166,5.41030709 L10.5162365,9.47023244 C10.176189,9.6422117 9.77021883,9.6422117 9.43035766,9.47027017 L1.41052842,5.41030709 L1.41052842,5.41030709 Z M18.5361775,11.7923297 C18.6230061,11.8362489 18.6360117,11.9136358 18.6360117,11.9559326 C18.636049,11.9983048 18.6230433,12.0759936 18.5360284,12.1200637 L10.5161992,16.1801023 C10.1761517,16.3520815 9.77018156,16.3521193 9.43032039,16.18014 L1.41052842,12.1201015 C1.32336447,12.0759181 1.31035882,11.9982671 1.31039608,11.9558949 C1.31039608,11.9136735 1.32336447,11.8362489 1.41037936,11.7922542 L3.41943587,10.7751694 L9.03817576,13.6196187 C9.33093336,13.767714 9.65197546,13.8417051 9.97312936,13.8417051 C10.2943205,13.8417051 10.6155117,13.7676386 10.9083066,13.619581 L16.5268974,10.7751694 L18.5361775,11.7923297 L18.5361775,11.7923297 Z M18.5359912,8.76514768 L10.5161992,12.8251862 C10.1761517,12.9971655 9.77018156,12.9972032 9.43032039,12.825224 L1.41052842,8.76522314 C1.32336447,8.72107753 1.31039608,8.64353971 1.31039608,8.60128066 C1.31039608,8.55894614 1.32336447,8.48148379 1.41037936,8.4373759 L3.41943587,7.42029104 L9.03817576,10.2647404 C9.33089609,10.4128357 9.65201273,10.4868268 9.97312936,10.4868268 C10.294246,10.4868268 10.6154744,10.412798 10.9082693,10.2646649 L16.5269346,7.42025331 L18.5358421,8.43726271 C18.6230061,8.48144606 18.6359744,8.55894614 18.6359744,8.60124293 C18.6360117,8.64350198 18.6230061,8.7210398 18.5359912,8.76514768 L18.5359912,8.76514768 Z" id="Channels"></path>
            </g>
        </g>
    </g>
</svg>