<?xml version="1.0" encoding="utf-8"?>
<!-- Generator: Adobe Illustrator 16.0.0, SVG Export Plug-In . SVG Version: 6.00 Build 0)  -->
<!DOCTYPE svg PUBLIC "-//W3C//DTD SVG 1.1//EN" "http://www.w3.org/Graphics/SVG/1.1/DTD/svg11.dtd">
<svg version="1.1" id="Layer_1" xmlns="http://www.w3.org/2000/svg" xmlns:xlink="http://www.w3.org/1999/xlink" x="0px" y="0px"
	 width="283.46px" height="283.46px" viewBox="0 0 283.46 283.46" enable-background="new 0 0 283.46 283.46" xml:space="preserve">
<g id="linkedin">
	<path fill="#fff" d="M79.575,254.179H28.652V101.19h50.923V254.179L79.575,254.179z M74.949,72.866
		c-5.291,5.071-12.271,7.607-20.944,7.607h-0.222c-8.375,0-15.171-2.537-20.389-7.607c-5.22-5.071-7.828-11.352-7.828-18.848
		c0-7.643,2.684-13.962,8.046-18.961c5.365-4.995,12.309-7.494,20.831-7.494c8.523,0,15.358,2.5,20.504,7.494
		c5.142,5,7.788,11.319,7.934,18.961C82.878,61.511,80.236,67.793,74.949,72.866z M262.762,254.179H211.84v-81.785
		c0-23.068-8.522-34.605-25.569-34.605c-6.465,0-11.905,1.799-16.312,5.398c-4.411,3.6-7.719,7.973-9.919,13.119
		c-1.03,2.645-1.544,6.756-1.544,12.342v85.528h-50.922c0.439-92.289,0.439-143.287,0-152.988h50.922v21.6
		c10.707-16.74,25.909-25.127,45.632-25.127c17.635,0,31.82,5.807,42.545,17.414c10.729,11.612,16.093,28.735,16.093,51.362v87.743
		H262.762L262.762,254.179z"/>
</g>
<g id="Layer_1_1_">
</g>
</svg>
