<?xml version="1.0" encoding="utf-8"?>
<!-- Generator: Adobe Illustrator 16.0.0, SVG Export Plug-In . SVG Version: 6.00 Build 0)  -->
<!DOCTYPE svg PUBLIC "-//W3C//DTD SVG 1.1//EN" "http://www.w3.org/Graphics/SVG/1.1/DTD/svg11.dtd">
<svg version="1.1" id="Layer_1" xmlns="http://www.w3.org/2000/svg" xmlns:xlink="http://www.w3.org/1999/xlink" x="0px" y="0px"
	 width="65.892px" height="49.404px" viewBox="0 0 65.892 49.404" enable-background="new 0 0 65.892 49.404" xml:space="preserve">
<path fill="#F8C82D" d="M63.179,49.404H2.714C1.216,49.404,0,48.187,0,46.689c0-1.5,1.216-2.716,2.714-2.716h60.464
	c1.499,0,2.714,1.216,2.714,2.716C65.893,48.187,64.678,49.404,63.179,49.404z"/>
<path fill="#F8C82D" d="M54.934,27.416H10.959c-1.499,0-2.714-1.215-2.714-2.714c0-1.5,1.216-2.714,2.714-2.714h43.974
	c1.5,0,2.715,1.215,2.715,2.714S56.433,27.416,54.934,27.416z"/>
<path fill="#F8C82D" d="M27.45,38.41H8.211c-1.499,0-2.715-1.215-2.715-2.715s1.216-2.715,2.715-2.715H27.45
	c1.5,0,2.715,1.215,2.715,2.715S28.95,38.41,27.45,38.41z"/>
<path fill="#F8C82D" d="M57.682,38.41H38.443c-1.5,0-2.715-1.215-2.715-2.715s1.215-2.715,2.715-2.715h19.239
	c1.499,0,2.714,1.215,2.714,2.715S59.181,38.41,57.682,38.41z"/>
<path fill="#F8C82D" d="M49.436,16.423H38.443c-1.5,0-2.715-1.216-2.715-2.714c0-1.5,1.215-2.715,2.715-2.715h10.993
	c1.5,0,2.715,1.215,2.715,2.715C52.151,15.207,50.936,16.423,49.436,16.423z"/>
<path fill="#F8C82D" d="M27.45,16.423H16.456c-1.499,0-2.714-1.216-2.714-2.714c0-1.5,1.216-2.715,2.714-2.715H27.45
	c1.499,0,2.714,1.215,2.714,2.715C30.165,15.207,28.949,16.423,27.45,16.423z"/>
<path fill="#F8C82D" d="M41.191,5.43h-16.49c-1.5,0-2.714-1.217-2.714-2.717C21.987,1.216,23.202,0,24.702,0h16.49
	c1.5,0,2.715,1.216,2.715,2.714C43.906,4.214,42.691,5.43,41.191,5.43z"/>
</svg>
