<?xml version="1.0" encoding="utf-8"?>
<!-- Generator: Adobe Illustrator 16.0.0, SVG Export Plug-In . SVG Version: 6.00 Build 0)  -->
<!DOCTYPE svg PUBLIC "-//W3C//DTD SVG 1.1//EN" "http://www.w3.org/Graphics/SVG/1.1/DTD/svg11.dtd">
<svg version="1.1" id="Layer_1" xmlns="http://www.w3.org/2000/svg" xmlns:xlink="http://www.w3.org/1999/xlink" x="0px" y="0px"
	 width="560px" height="560px" viewBox="0 0 560 560" enable-background="new 0 0 560 560" xml:space="preserve">
<path fill="#15B999" d="M558.729,416.237c0.781-3.419,1.271-6.941,1.271-10.594V154.111c0-7.49-1.89-14.479-4.993-20.79
	L422.905,249.462L558.729,416.237z"/>
<path fill="#15B999" d="M280,343.705l259.793-228.386c-7.77-5.495-17.161-8.773-27.369-8.773H47.6
	c-10.208,0-19.612,3.278-27.37,8.773L280,343.705z"/>
<path fill="#15B999" d="M405.172,265.049L287.781,368.264c-2.216,1.96-5.005,2.929-7.781,2.929s-5.564-0.969-7.781-2.929
	L154.84,265.073l-141.4,173.6c8.657,8.96,20.744,14.572,34.16,14.572h464.824c13.404,0,25.503-5.624,34.147-14.585L405.172,265.049z
	"/>
<path fill="#15B999" d="M5.005,133.309C1.902,139.632,0,146.609,0,154.111v251.544c0,3.651,0.501,7.188,1.283,10.605
	l135.835-166.787L5.005,133.309z"/>
</svg>
