<?xml version="1.0" encoding="iso-8859-1"?>
<!-- Generator: Adobe Illustrator 16.0.0, SVG Export Plug-In . SVG Version: 6.00 Build 0)  -->
<!DOCTYPE svg PUBLIC "-//W3C//DTD SVG 1.1//EN" "http://www.w3.org/Graphics/SVG/1.1/DTD/svg11.dtd">
<svg version="1.1" id="bell" xmlns="http://www.w3.org/2000/svg" xmlns:xlink="http://www.w3.org/1999/xlink" x="0px" y="0px"
	 width="283.46px" height="283.46px" viewBox="0 0 283.46 283.46" style="enable-background:new 0 0 283.46 283.46;"
	 xml:space="preserve">
<path style="fill:#FFFFFF;" d="M220.568,117.918C184.053,39.346,165.076,9.511,105.412,10.743
	C84.165,11.181,89.269-4.644,73.069,1.361C56.882,7.372,70.773,16.16,54.211,29.745c-46.479,38.147-42.194,73.443-20.64,157.557
	c9.088,35.42-21.892,37.165-9.632,71.51c8.944,25.038,74.913,35.521,144.516,9.695c69.602-25.82,113.535-77.084,104.591-102.121
	C260.779,132.041,235.954,150.999,220.568,117.918z M160.897,247.347c-62.159,23.067-113.248,9.495-115.405,3.472
	c-3.722-10.402,20.065-45.097,91.131-71.467c71.072-26.37,110.728-16.588,114.874-4.973
	C253.949,181.24,223.063,224.285,160.897,247.347z M140.92,191.392c-32.499,12.06-55.085,25.852-69.696,38.273
	c10.283,9.344,29.56,11.621,48.774,4.497c24.456-9.076,39.474-29.904,33.532-46.523c-0.069-0.199-0.176-0.381-0.251-0.575
	C149.271,188.384,145.155,189.822,140.92,191.392z"/>
</svg>
