<?xml version="1.0" encoding="UTF-8" standalone="no"?>
<svg width="76px" height="76px" viewBox="0 0 76 76" version="1.1" xmlns="http://www.w3.org/2000/svg" xmlns:xlink="http://www.w3.org/1999/xlink">
    <!-- Generator: Sketch 40.3 (33839) - http://www.bohemiancoding.com/sketch -->
    <title>Play</title>
    <desc>Created with Sketch.</desc>
    <defs></defs>
    <g id="Desktop" stroke="none" stroke-width="1" fill="none" fill-rule="evenodd">
        <g id="Theme-3-Channel---desktop" transform="translate(-1152.000000, -912.000000)">
            <g id="3-card" transform="translate(215.000000, 716.000000)">
                <g id="3-card-youtube" transform="translate(780.000000, 0.000000)">
                    <g id="Play" transform="translate(158.000000, 197.000000)">
                        <circle id="Oval" stroke="#FFFFFF" stroke-width="2" fill-opacity="0.590000033" fill="#000000" cx="37" cy="37" r="37"></circle>
                        <path d="M52.9614583,34.6351563 L30.4864583,21.2583333 C30.2119792,21.096875 29.9294271,21 29.6065104,21 C28.7265625,21 28.0080729,21.7265625 28.0080729,22.6145833 L28,22.6145833 L28,50.3854167 L28.0080729,50.3854167 C28.0080729,51.2734375 28.7265625,52 29.6065104,52 C29.9375,52 30.2119792,51.8869792 30.5106771,51.7255208 L52.9614583,38.3648438 C53.4942708,37.9208333 53.8333333,37.2507813 53.8333333,36.5 C53.8333333,35.7492187 53.4942708,35.0872396 52.9614583,34.6351563 L52.9614583,34.6351563 Z" id="Shape" fill="#FFFFFF"></path>
                    </g>
                </g>
            </g>
        </g>
    </g>
</svg>