<?xml version="1.0" encoding="iso-8859-1"?>
<!-- Generator: Adobe Illustrator 16.0.0, SVG Export Plug-In . SVG Version: 6.00 Build 0)  -->
<!DOCTYPE svg PUBLIC "-//W3C//DTD SVG 1.1//EN" "http://www.w3.org/Graphics/SVG/1.1/DTD/svg11.dtd">
<svg version="1.1" xmlns="http://www.w3.org/2000/svg" xmlns:xlink="http://www.w3.org/1999/xlink" x="0px" y="0px"
   width="283.46px" height="283.46px" viewBox="0 0 283.46 283.46" style="enable-background:new 0 0 283.46 283.46;"
   xml:space="preserve">
<g id="search">
  <path style="fill-rule:evenodd;clip-rule:evenodd;fill:#fff;" d="M211.258,198.301c1.793,1.776,1.793,4.681,0,6.474
    l-6.483,6.491c-1.785,1.777-4.696,1.777-6.483,0L161.436,174.4c-0.497-0.481-0.822-1.084-1.044-1.703
    c-9.312,6.815-20.759,10.869-33.17,10.869c-31.125,0-56.354-25.22-56.354-56.34c0-31.134,25.229-56.359,56.354-56.359
    c31.116,0,56.353,25.225,56.353,56.359c0,12.415-4.069,23.854-10.869,33.157c0.619,0.23,1.207,0.555,1.695,1.045L211.258,198.301z
     M127.221,89.655c-20.752,0-37.575,16.822-37.575,37.571c0,20.738,16.823,37.562,37.575,37.562
    c20.742,0,37.566-16.823,37.566-37.562C164.787,106.478,147.963,89.655,127.221,89.655z"/>
</g>
<g id="Layer_1">
</g>
</svg>
