<?xml version="1.0" encoding="UTF-8" standalone="no"?>
<svg width="17px" height="16px" viewBox="0 0 17 16" version="1.1" xmlns="http://www.w3.org/2000/svg" xmlns:xlink="http://www.w3.org/1999/xlink">
    <!-- Generator: Sketch 40.1 (33804) - http://www.bohemiancoding.com/sketch -->
    <title>Shape</title>
    <desc>Created with Sketch.</desc>
    <defs></defs>
    <g id="Desktop" stroke="none" stroke-width="1" fill-rule="evenodd">
        <g id="Theme-1---Home---Desktop" transform="translate(-1358.000000, -171.000000)">
            <g id="Group-4" transform="translate(1154.000000, 156.000000)">
                <g id="Group-8">
                    <path d="M220.108425,28.3525874 L216.632507,25.0985963 C216.614034,25.0813024 216.592365,25.0692147 216.573061,25.0531177 C217.257007,24.0818512 217.656189,22.9192157 217.656189,21.6689143 C217.656189,18.2677761 214.711065,15.5106383 211.078095,15.5106383 C207.445124,15.5106383 204.5,18.2677761 204.5,21.6688545 C204.5,25.069873 207.445061,27.8270706 211.078031,27.8270706 C212.413644,27.8270706 213.655486,27.4533685 214.692975,26.8130782 C214.71017,26.8310901 214.723018,26.851376 214.741491,26.8686698 L218.217473,30.1227806 C218.739637,30.6115554 219.586196,30.6115554 220.108425,30.1227806 C220.630525,29.6339459 220.630525,28.8414221 220.108425,28.3525874 L220.108425,28.3525874 Z M211.078095,25.6922112 C208.704481,25.6922112 206.780354,23.8909011 206.780354,21.6688545 C206.780354,19.446748 208.704545,17.6454379 211.078095,17.6454379 C213.45158,17.6454379 215.375771,19.4468078 215.375771,21.6688545 C215.375771,23.8909011 213.45158,25.6922112 211.078095,25.6922112 L211.078095,25.6922112 Z" id="Shape"></path>
                </g>
            </g>
        </g>
    </g>
</svg>