<?xml version="1.0" encoding="UTF-8" standalone="no"?>
<svg width="17px" height="17px" viewBox="0 0 17 17" version="1.1" xmlns="http://www.w3.org/2000/svg" xmlns:xlink="http://www.w3.org/1999/xlink">
    <!-- Generator: Sketch 40.1 (33804) - http://www.bohemiancoding.com/sketch -->
    <title>Shape</title>
    <desc>Created with Sketch.</desc>
    <defs></defs>
    <g id="Desktop" stroke="none" stroke-width="1" fill-rule="evenodd">
        <g id="Theme-3-Home---desktop" transform="translate(-1350.000000, -53.000000)">
            <g id="Header">
                <g id="Search" transform="translate(1085.000000, 38.000000)">
                    <path d="M281.108425,29.2175365 L277.632507,25.7416824 C277.614034,25.7232094 277.592365,25.7102975 277.573061,25.693103 C278.257007,24.6556138 278.656189,23.4137077 278.656189,22.0781585 C278.656189,18.4451245 275.711065,15.5 272.078095,15.5 C268.445124,15.5 265.5,18.4451245 265.5,22.0780945 C265.5,25.7110007 268.445061,28.6561891 272.078031,28.6561891 C273.413644,28.6561891 274.655486,28.2570073 275.692975,27.5730608 C275.71017,27.5923008 275.723018,27.6139698 275.741491,27.6324427 L279.217473,31.1084247 C279.739637,31.6305251 280.586196,31.6305251 281.108425,31.1084247 C281.630525,30.5862603 281.630525,29.7397009 281.108425,29.2175365 L281.108425,29.2175365 Z M272.078095,26.375771 C269.704481,26.375771 267.780354,24.4516443 267.780354,22.0780945 C267.780354,19.7044808 269.704545,17.7803541 272.078095,17.7803541 C274.45158,17.7803541 276.375771,19.7045447 276.375771,22.0780945 C276.375771,24.4516443 274.45158,26.375771 272.078095,26.375771 L272.078095,26.375771 Z" id="Shape"></path>
                </g>
            </g>
        </g>
    </g>
</svg>