<?xml version="1.0" encoding="utf-8"?>
<!-- Generator: Adobe Illustrator 17.0.0, SVG Export Plug-In . SVG Version: 6.00 Build 0)  -->
<!DOCTYPE svg PUBLIC "-//W3C//DTD SVG 1.1//EN" "http://www.w3.org/Graphics/SVG/1.1/DTD/svg11.dtd">
<svg version="1.1" id="Layer_1" xmlns="http://www.w3.org/2000/svg" xmlns:xlink="http://www.w3.org/1999/xlink" x="0px" y="0px"
	 width="70px" height="70px" viewBox="0 0 70 70" enable-background="new 0 0 70 70" xml:space="preserve">
<g>
	<path id="ShareThis" d="M26.502,35.116c0,0.168-0.038,0.326-0.048,0.494l17.605,8.8c1.507-1.276,3.436-2.073,5.566-2.073
		c4.789,0.001,8.671,3.882,8.671,8.671c0,4.794-3.881,8.675-8.671,8.675c-4.793,0-8.671-3.881-8.671-8.675
		c0-0.173,0.038-0.327,0.048-0.494l-17.605-8.8c-1.512,1.272-3.436,2.068-5.566,2.068c-4.789,0-8.671-3.877-8.671-8.666
		c0-4.794,3.882-8.676,8.671-8.676c2.13,0,4.055,0.802,5.566,2.073l17.605-8.8c-0.01-0.168-0.048-0.326-0.048-0.499
		c0-4.784,3.877-8.666,8.671-8.666c4.789,0,8.671,3.882,8.671,8.666c0,4.793-3.881,8.676-8.671,8.676
		c-2.135,0-4.06-0.802-5.566-2.078l-17.605,8.805C26.463,34.785,26.502,34.943,26.502,35.116z"/>
</g>
</svg>
