<svg width="13" height="12" viewBox="0 0 13 12" xmlns="http://www.w3.org/2000/svg"><title>edit</title><path d="M12.008 5.056c-.05.014-.244-.12-.632 0-.457-.186-.717-.386-.632-.632-.215-.02-.28-.088 0 0-.345-.288-.41-.488-.632-.632.092-.056.092-.123 0 0 .092-.256.027-.323 0-.632.027-.025.092-.225 0-.632h.632c-.085-.06-.085-.327 0-.632-.41-.028-.54-.162-.632 0-.168-.428-.298-.562-.632-.632.01-.197-.186-.197-.632 0-.204.404-.53.47-.632.632-.222-.228-.222-.228 0 0-.482-.362-.612-.428-.632-.632-.305.07-.435.07-.632 0 .002-.13-.063-.263 0-.632C6.89.2 6.694 0 6.32 0H5.056c.014.067-.116.267 0 .632-.116.37-.31.635-.632.632-.2.204-.394.27-.632.632.043-.228.043-.228 0 0-.087-.162-.217-.162-.632 0 .09-.162-.105-.228 0-.632h-.632c.072-.063-.188-.063-.632 0 .054.27-.076.337 0 .632-.336-.028-.4.105-.632 0-.094.506-.094.772 0 1.264.426.042.49.442.632.632-.336.344-.466.544-.632.632.036.246.036.38 0 .632-.224-.053-.42.014-.632 0C.195 5.07 0 5.27 0 5.688v.632c.065.55.26.685.632.632.343.053.603.253.632.632.166.154.23.354.632.632-.27-.077-.27-.077 0 0-.206.056-.206.19 0 .632-.206-.11-.27.09-.632 0v.632c-.094-.074-.094.193 0 .632.23-.105.296.028.632 0-.076.295.054.36 0 .632.444.063.64.063.632 0h.632v-.632c.025.095.415.028.632 0 .303.228.498.36.632.632.19-.137.32-.137.632 0-.116.13-.05.33 0 .632-.05.365.144.565.632.632h.632c.44 0 .634-.267.632-.632.002-.436.197-.636.632-.632-.11-.137-.045-.204 0 0 .085-.27.28-.337.632-.632-.157.228-.157.16 0 0-.027.16.103.095 0 0 .363.095.558.16.632 0v.632c.446.063.706.063.632 0 .27-.07.27-.07.632 0-.168-.27-.038-.337 0-.632.222.028.352-.105.632 0-.215-.24-.215-.306 0 0-.02-.506-.02-.773 0-.632v-.632h-.632c.027-.042-.038-.376 0-.632.092-.077.092-.144 0 0 .222-.344.352-.544.632-.632-.15-.18-.15-.313 0-.632.11.12.305.053.632 0 .323.053.518-.148.632-.632v-.632c.016.05.016-.15 0-.632zM8.216 6.32c0-.063-.063.19 0 .632-.127-.19-.19-.063 0 0-.38.19-.506.442-.632.632-.253.126-.443.253-.632.632-.063-.19-.19-.19 0 0-.506-.063-.695 0-1.264 0 .063 0-.19-.063-.632 0 .19-.127.063-.19 0 0-.19-.38-.442-.506-.632-.632-.126-.253-.253-.443-.632-.632.19-.063.19-.19 0 0 .063-.506 0-.695 0-.632 0-.57.063-.822 0-1.264.126.19.19.063 0 0 .38-.19.506-.442.632-.632.253-.126.442-.253.632-.632.063.19.19.19 0 0 .506.063.695 0 .632 0 .57 0 .82.063 1.264 0-.19.126-.063.19 0 0 .19.38.442.506.632.632.126.253.253.442.632.632-.19.063-.19.19 0 0V6.32z" fill="#FFF" fill-rule="evenodd"/></svg>