<svg width="16" height="13" viewBox="0 0 16 13" xmlns="http://www.w3.org/2000/svg"><title>hide</title><g fill="#FFF" fill-rule="evenodd"><path d="M13.366.17L11.28 2.235c-2.584-1.16-5.34-.877-7.97.822C1.35 4.32.162 5.908.113 5.976c-.156.213-.15.503.016.71 1.114 1.353 2.28 2.407 3.473 3.14l-1.835 1.816c-.228.226-.228.593 0 .822.114.113.264.17.414.17.15 0 .3-.057.414-.17l11.6-11.47c.23-.227.23-.594 0-.823-.227-.228-.6-.224-.83 0zm-8 8.063c-.186-.418-.28-.872-.28-1.346 0-.914.36-1.78 1.02-2.43 1.03-1.02 2.556-1.262 3.817-.73L5.367 8.232zM15.84 5.95c-.806-.98-1.64-1.805-2.487-2.46-.258-.196-.626-.15-.828.1-.2.252-.153.616.1.816.672.52 1.344 1.164 1.996 1.918-.384.445-1.133 1.244-2.15 1.976-1.96 1.408-3.937 1.917-5.876 1.51-.316-.066-.628.137-.694.45-.068.312.137.62.453.686.505.106 1.014.158 1.525.158.77 0 1.545-.12 2.317-.358 1.014-.313 2.02-.828 2.995-1.53 1.642-1.19 2.623-2.502 2.666-2.557.156-.214.15-.504-.017-.71z"/></g></svg>