<svg width="14" height="14" viewBox="0 0 14 14" xmlns="http://www.w3.org/2000/svg"><title>move</title><path d="M13.85 6.643l-2-2c-.097-.1-.215-.15-.35-.15-.136 0-.253.05-.352.15-.1.1-.148.216-.148.35v1H8v-3h1c.135 0 .253-.048.352-.147.098-.1.148-.216.148-.352 0-.135-.05-.252-.148-.35l-2-2c-.1-.1-.217-.15-.352-.15-.136 0-.253.05-.352.15l-2 2c-.1.098-.148.215-.148.35 0 .136.05.253.148.352.1.1.217.148.352.148h1v3H3v-1c0-.135-.05-.252-.148-.35-.1-.1-.217-.15-.352-.15-.135 0-.253.05-.352.15l-2 2C.05 6.74 0 6.858 0 6.993c0 .135.05.253.148.352l2 2c.1.098.216.148.352.148.135 0 .253-.05.352-.148.1-.1.148-.217.148-.352v-1h3v3H5c-.135 0-.253.05-.352.148-.1.1-.148.216-.148.352 0 .135.05.253.148.352l2 2c.1.098.217.148.352.148.135 0 .253-.05.352-.15l2-1.998c.1-.1.148-.217.148-.352 0-.136-.05-.253-.148-.352-.1-.1-.217-.148-.352-.148H8v-3h3v1c0 .136.05.253.148.352.1.1.217.148.352.148.135 0 .253-.05.352-.148l2-2c.1-.1.148-.217.148-.352 0-.135-.05-.253-.15-.35z" fill="#FFF" fill-rule="evenodd"/></svg>